#!OML:ASF \\Waltz\H\Terrain\Patient Classification 1\Animal2\Wednesday\Animal2.ASF
:FULLY-SPECIFIED
:DEGREES
2012
root 9.62053 16.3006 -14.0354 3.71371 3.21046 -5.22081
lowerback 7.6859 -1.47108 0.0380015
upperback 0.969651 -1.92874 0.665189
thorax -3.28262 -0.954635 0.865384
lowerneck -3.68894 0.841836 11.9933
upperneck 17.6103 1.71364 -10.5838
head 6.0691 0.849868 -5.3178
rclavicle -3.02153e-014 -7.95139e-016
rhumerus -10.0237 -17.7499 -15.2638
rradius 41.7262
rwrist 15.5324
rhand 4.45088 30.2755
rfingers 7.12502
rthumb 29.8461 2.66051
lclavicle -3.02153e-014 -7.95139e-016
lhumerus -30.5441 7.89804 0.758293
lradius 48.3935
lwrist 27.9318
lhand -11.8695 23.3735
lfingers 7.12502
lthumb 14.1827 52.8693
rfemur -27.9729 -19.898 27.4691
rtibia 57.7237
rfoot -35.6484 -9.10576
rtoes 0.936217
lfemur -29.1147 23.1341 -17.2809
ltibia 61.1338
lfoot -36.1386 -0.447582
ltoes -1.3863
2013
root 9.61955 16.3098 -14.0303 3.69076 3.33449 -5.46459
lowerback 7.77602 -1.55261 0.232087
upperback 0.87105 -2.01677 0.74761
thorax -3.43754 -0.999696 0.855587
lowerneck -3.77886 0.855605 12.0849
upperneck 17.7705 1.74585 -10.7255
head 6.1395 0.860275 -5.38342
rclavicle 1.40143e-014 6.36111e-015
rhumerus -10.1211 -17.6569 -15.3671
rradius 41.7612
rwrist 14.9735
rhand 2.99771 30.3013
rfingers 7.12502
rthumb 28.4584 2.44571
lclavicle 1.40143e-014 6.36111e-015
lhumerus -30.6941 7.89363 0.855778
lradius 48.1741
lwrist 27.8839
lhand -12.998 23.6264
lfingers 7.12502
lthumb 13.0951 53.1952
rfemur -27.8047 -19.784 27.7582
rtibia 57.4832
rfoot -35.5883 -9.34024
rtoes 0.464215
lfemur -29.0595 22.9921 -16.9816
ltibia 61.0079
lfoot -36.0771 -0.623044
ltoes -1.08269
2014
root 9.61762 16.3247 -14.0258 3.76405 3.35678 -5.4829
lowerback 7.85199 -1.5529 0.194953
upperback 0.699173 -2.01888 0.748776
thorax -3.6567 -0.999228 0.88376
lowerneck -3.67455 0.797118 12.0349
upperneck 17.855 1.67367 -10.6479
head 6.13838 0.830677 -5.35522
rclavicle 1.91827e-014 0
rhumerus -10.4451 -17.2929 -15.3648
rradius 41.8453
rwrist 14.0827
rhand 2.03852 29.9696
rfingers 7.12502
rthumb 27.5414 1.96427
lclavicle 1.91827e-014 0
lhumerus -30.7543 7.87463 1.01274
lradius 47.9222
lwrist 27.7012
lhand -13.4897 23.3525
lfingers 7.12502
lthumb 12.6211 52.9513
rfemur -27.7337 -19.629 27.7954
rtibia 57.2416
rfoot -35.5582 -9.03029
rtoes 1.48716
lfemur -29.0283 22.9428 -16.9851
ltibia 60.7974
lfoot -35.9591 -0.47552
ltoes -1.53479
2015
root 9.61477 16.3429 -14.0188 3.81304 3.39608 -5.30867
lowerback 7.84805 -1.53856 -0.066515
upperback 0.644547 -2.02373 0.716497
thorax -3.70314 -0.99754 0.99851
lowerneck -3.56374 0.689809 11.8934
upperneck 17.6943 1.52241 -10.5226
head 6.04903 0.758522 -5.29353
rclavicle -1.00386e-014 2.06736e-014
rhumerus -10.5316 -17.4498 -15.4712
rradius 41.71
rwrist 13.4023
rhand 1.37272 29.6162
rfingers 7.12502
rthumb 26.9045 1.51108
lclavicle -1.00386e-014 2.06736e-014
lhumerus -30.8578 7.9658 1.24084
lradius 47.7158
lwrist 27.4367
lhand -14.0002 23.1152
lfingers 7.12502
lthumb 12.1289 52.7437
rfemur -27.6179 -19.6347 27.6053
rtibia 57.0081
rfoot -35.4603 -8.80087
rtoes 2.72898
lfemur -28.8837 22.8654 -17.1775
ltibia 60.5156
lfoot -35.8571 -0.35587
ltoes -1.50569
2016
root 9.61298 16.3614 -14.0125 3.82954 3.51699 -5.2857
lowerback 7.83698 -1.56569 -0.114646
upperback 0.642818 -2.06483 0.696181
thorax -3.69712 -1.01734 1.00862
lowerneck -3.70445 0.598843 11.8279
upperneck 17.6437 1.37562 -10.4621
head 6.03986 0.683488 -5.2701
rclavicle 1.50082e-014 3.97569e-015
rhumerus -10.5231 -18.0332 -15.6926
rradius 41.4511
rwrist 13.2417
rhand 0.567715 29.3864
rfingers 7.12502
rthumb 26.134 1.16494
lclavicle 1.50082e-014 3.97569e-015
lhumerus -30.915 8.08271 1.45375
lradius 47.4495
lwrist 27.1228
lhand -15.0109 23.3756
lfingers 7.12502
lthumb 11.1542 53.0591
rfemur -27.4456 -19.6914 27.5848
rtibia 56.7656
rfoot -35.363 -8.6086
rtoes 3.80707
lfemur -28.7521 22.7476 -17.189
ltibia 60.2398
lfoot -35.7669 -0.349918
ltoes -1.26332
